<?xml version="1.0" encoding="iso-8859-1"?>
<!-- Generator: Adobe Illustrator 18.1.1, SVG Export Plug-In . SVG Version: 6.00 Build 0)  -->
<svg xmlns="http://www.w3.org/2000/svg" xmlns:xlink="http://www.w3.org/1999/xlink" version="1.1" id="Capa_1" x="0px" y="0px" viewBox="0 0 333.817 333.817" style="enable-background:new 0 0 333.817 333.817;" xml:space="preserve" width="512px" height="512px">
<g>
	<path d="M333.817,60.647L273.163,0L5.818,267.346L0,333.817l28.014-2.452l0.143,0.143l0.167-0.167   l38.146-3.341L333.817,60.647z M37.418,252.625L234.14,55.904l6.856,6.856L44.274,259.481L37.418,252.625z M249.433,71.197   l15.293,15.293L68.004,283.212l-15.293-15.293L249.433,71.197z M273.163,94.933l4.744,4.744L81.191,296.398l-4.744-4.744   L273.163,94.933z M242.577,47.466l4.75-4.744L291.1,86.496l-4.744,4.744L242.577,47.466z M32.519,318.989l-17.692-17.692   l2.506-28.587l11.647-11.647l43.773,43.773l-11.647,11.647L32.519,318.989z" fill="#916319"/>
</g>
<g>
</g>
<g>
</g>
<g>
</g>
<g>
</g>
<g>
</g>
<g>
</g>
<g>
</g>
<g>
</g>
<g>
</g>
<g>
</g>
<g>
</g>
<g>
</g>
<g>
</g>
<g>
</g>
<g>
</g>
</svg>
